HIERARCHY
ROOT Hips
{
  OFFSET -32.5998 29.0326 120.673
  CHANNELS 6 Xposition Yposition Zposition Zrotation Xrotation Yrotation
  JOINT LeftUpLeg
  {
    OFFSET 8.64259 1.95398 -2.38835
    CHANNELS 3 Zrotation Xrotation Yrotation
    JOINT LeftLeg
    {
      OFFSET 43.7702 0 0
      CHANNELS 3 Zrotation Xrotation Yrotation
      JOINT LeftFoot
      {
        OFFSET 40.6238 0 0
        CHANNELS 3 Zrotation Xrotation Yrotation
        JOINT LeftToeBase
        {
          OFFSET 12.7242 0 0
          CHANNELS 3 Zrotation Xrotation Yrotation
          End Site
          {
            OFFSET 0 0 0
          }
        }
      }
    }
  }
  JOINT RightUpLeg
  {
    OFFSET -8.2249 1.95398 -2.59336
    CHANNELS 3 Zrotation Xrotation Yrotation
    JOINT RightLeg
    {
      OFFSET 43.5653 0 0
      CHANNELS 3 Zrotation Xrotation Yrotation
      JOINT RightFoot
      {
        OFFSET 40.6238 0 0
        CHANNELS 3 Zrotation Xrotation Yrotation
        JOINT RightToeBase
        {
          OFFSET 12.7242 0 0
          CHANNELS 3 Zrotation Xrotation Yrotation
          End Site
          {
            OFFSET 0 0 0
          }
        }
      }
    }
  }
  JOINT Spine
  {
    OFFSET 0.165834 0.87714 6.61349
    CHANNELS 3 Zrotation Xrotation Yrotation
    JOINT Spine1
    {
      OFFSET 7.38963 1.71661e-005 0
      CHANNELS 3 Zrotation Xrotation Yrotation
      JOINT Spine2
      {
        OFFSET 11.9445 1.14441e-005 0
        CHANNELS 3 Zrotation Xrotation Yrotation
        JOINT Spine3
        {
          OFFSET 14.7254 4.19617e-005 0
          CHANNELS 3 Zrotation Xrotation Yrotation
          JOINT Spine4
          {
            OFFSET 10.9679 0 0
            CHANNELS 3 Zrotation Xrotation Yrotation
            JOINT RightShoulder
            {
              OFFSET 2.46616 -1.6653 3.69651
              CHANNELS 3 Zrotation Xrotation Yrotation
              JOINT RightArm
              {
                OFFSET 13.0012 0 0
                CHANNELS 3 Zrotation Xrotation Yrotation
                JOINT RightForeArm
                {
                  OFFSET 28.7848 1.62311e-005 0
                  CHANNELS 3 Zrotation Xrotation Yrotation
                  JOINT RightHand
                  {
                    OFFSET 26.5688 1.62095e-005 0
                    CHANNELS 3 Zrotation Xrotation Yrotation
                    End Site
                    {
                      OFFSET 0 0 0
                    }
                  }
                }
              }
            }
            JOINT LeftShoulder
            {
              OFFSET 2.38034 -1.29275 -3.7523
              CHANNELS 3 Zrotation Xrotation Yrotation
              JOINT LeftArm
              {
                OFFSET 16.3182 6.07031e-005 0
                CHANNELS 3 Zrotation Xrotation Yrotation
                JOINT LeftForeArm
                {
                  OFFSET 27.0901 0 0
                  CHANNELS 3 Zrotation Xrotation Yrotation
                  JOINT LeftHand
                  {
                    OFFSET 24.5451 1.51738e-005 0
                    CHANNELS 3 Zrotation Xrotation Yrotation
                    End Site
                    {
                      OFFSET 0 0 0
                    }
                  }
                }
              }
            }
            JOINT Neck
            {
              OFFSET 5.0226 -0.0266342 0
              CHANNELS 3 Zrotation Xrotation Yrotation
              JOINT Head
              {
                OFFSET 6.69364 2.86102e-005 0
                CHANNELS 3 Zrotation Xrotation Yrotation
                End Site
                {
                  OFFSET 0 0 0
                }
              }
            }
          }
        }
      }
    }
  }
}
MOTION
Frames:	7
Frame Time:	0.0416667
-91.708 88.419 -83.6374 -113.892 42.6412 -77.1588 -172.618 23.6962 85.5729 -60.7734 16.8061 -0.787408 73.0253 8.76032 7.42442 22.5382 -1.03274 -3.30613 173.115 28.7361 86.9679 -96.9064 -8.49062 -3.779 70.6766 -6.55523 -6.83132 15.9039 2.19141 10.0519 0.066196 9.83254 -89.4875 7.20617 0.353079 0.994465 -4.46509 0.396502 0.977965 -26.9972 0.0378883 1.0546 -6.98457 0.0378812 1.05459 95.8023 -15.6307 -98.9784 50.2548 -4.6365 12.0827 -42.139 -8.60696 -68.7093 -2.81664 -0.103538 -1.12812 -86.6311 -31.8874 80.2458 -4.9815 5.34701 -13.4831 48.3681 -18.7682 -97.7964 -3.93333 -0.0910745 -4.32794 1.92986 1.85112 -3.69099 -5.99694 2.37689 1.28313 
-95.1114 88.5479 -87.4045 -111.557 43.5733 -77.7155 -170.411 24.8622 87.3906 -65.1086 19.3887 -1.37883 72.3993 8.60983 9.29938 26.9354 0.635596 -3.42211 172.254 38.3744 90.0853 -90.1506 -5.09061 -2.43168 68.662 -4.91983 -6.82712 15.3943 2.009 11.0544 -0.172706 9.97663 -89.6241 6.92049 -0.183893 0.74878 -4.75066 -0.150766 0.756134 -27.2845 -0.400425 0.658901 -7.27185 -0.40041 0.658893 95.9166 -12.2935 -99.9076 46.5359 -2.23143 16.7656 -43.2145 -4.09393 -75.0443 -4.52897 -0.22088 0.434696 -85.6247 -25.4611 80.6104 -2.74698 -1.15619 -22.1849 48.1046 -18.729 -99.744 -3.90094 -0.107911 -3.07286 0.211623 3.24319 -1.37125 -3.20452 3.40449 1.87156 
-98.193 88.9495 -90.6523 -109.433 41.5205 -78.8654 -168.431 29.108 88.7178 -70.7273 21.9899 -1.7067 62.2859 0.623139 9.05708 33.9271 5.84641 -10.986 168.317 43.3566 90.9723 -77.5065 2.9094 0.491465 65.8749 -2.46151 -6.08549 13.3131 3.23052 9.85162 -0.627771 10.2808 -89.7308 6.31486 -1.14011 0.567673 -5.35577 -1.11403 0.6173 -27.8944 -1.258 0.198744 -7.88182 -1.25801 0.19873 95.0554 -10.8284 -103.018 38.9723 5.29816 21.5415 -40.2974 0.782357 -82.6622 -7.47557 -0.542628 3.81245 -84.5903 -18.9494 81.0976 -0.945183 -8.97726 -29.3304 48.0194 -17.1209 -100.275 -2.94353 -0.098732 -2.53244 -1.5609 4.3421 -0.182144 0.385167 4.39872 2.32794 
-101.595 88.9651 -94.1643 -108.467 37.7803 -79.7271 -166.192 34.0122 89.8495 -77.7006 24.7188 -1.92713 53.3093 -6.21838 6.95679 14.5163 0.799342 -12.7727 165.355 43.5044 88.7922 -62.8486 6.52774 4.39957 62.2408 0.385725 -3.67805 13.118 3.95788 8.22072 -1.06376 10.8122 -89.9121 5.25119 -2.08905 0.21305 -6.41812 -2.07764 0.304822 -28.9664 -2.05648 -0.424915 -8.95378 -2.05644 -0.42491 94.7317 -9.19099 -104.787 31.8196 14.931 22.6468 -38.6149 0.33369 -90.724 -12.4752 -1.48265 8.75007 -83.5722 -12.0256 81.442 -5.16065 -14.8789 -37.935 47.2931 -11.4988 -96.8957 -2.25157 -0.0887797 -2.57841 0.0485692 4.567 -0.709398 -0.0300913 4.74429 4.5824 
-105.215 88.2137 -98.1749 -106.488 35.5547 -80.9158 -161.301 39.5023 89.9662 -83.4363 16.565 -2.57343 54.2413 -6.30732 7.59501 16.6067 0.842888 -11.3223 164.293 42.2648 86.5437 -48.0292 1.80547 7.4492 58.8836 2.17152 -1.12427 14.9917 2.42624 10.3241 -1.1963 11.0987 -90.1452 4.67287 -2.44974 -0.254322 -6.99577 -2.45853 -0.146195 -29.5471 -2.25997 -0.979165 -9.53446 -2.25997 -0.979171 95.4216 -7.40052 -103.674 29.4658 21.3583 16.1643 -41.0127 1.90651 -97.4285 -19.8756 -3.03619 12.5102 -83.831 -9.17661 79.7712 -10.4185 -17.0068 -47.0074 51.3974 -4.41254 -88.4865 -3.37905 -0.109661 -2.18988 -0.81602 4.49915 -0.402682 1.18926 4.71178 5.28003 
-108.715 86.8554 -102.588 -105.039 34.7129 -82.0984 -154.684 44.7015 89.1158 -85.8034 12.7268 -4.07647 61.1895 -1.47007 7.99914 15.2629 -0.55452 -9.48468 164.827 40.8476 84.9827 -38.5911 1.11987 7.941 58.8092 1.59006 -1.27811 15.8969 2.23125 9.94831 -1.21406 11.2774 -90.1936 4.31392 -2.50436 -0.359972 -7.35463 -2.51779 -0.24934 -29.9061 -2.28035 -1.09636 -9.89347 -2.28035 -1.09636 96.4219 -8.14861 -100.203 34.2185 20.2924 -0.20365 -41.7818 3.03608 -98.6457 -21.7494 -4.09219 16.4678 -84.5278 -10.5186 78.3801 -14.8754 -14.7499 -56.1193 57.8716 5.75625 -80.5953 -4.65492 -0.125562 -2.65787 -0.377866 4.34311 -0.265713 -0.291754 4.45066 4.4982 
-112.323 84.6067 -107.14 -105.026 32.9859 -83.0565 -149.947 48.9587 87.7904 -84.4795 19.5454 -6.00675 61.915 -0.247348 7.17694 15.9039 -0.592331 -9.01182 165.252 40.3289 82.1133 -39.3802 5.02608 7.48852 58.7381 2.00241 -1.24562 15.5627 2.87165 8.48805 -1.23507 11.5967 -90.0469 3.6789 -2.48642 -0.0915744 -7.98967 -2.48803 0.0180204 -30.5424 -2.34391 -0.835033 -10.5297 -2.34389 -0.83502 96.1789 -10.0814 -100.105 39.0924 17.3359 -17.1456 -46.9999 0.52947 -96.0912 -17.8983 -3.20376 15.6028 -85.5703 -11.8372 76.171 -17.4638 -11.8197 -63.3722 61.8967 17.0502 -72.4671 -4.61138 -0.134582 -2.19491 0.386589 3.51162 -2.82998 0.00470505 4.04352 5.61673 
